<svg width="500" height="500" viewBox="0 0 500 500" fill="none" xmlns="http://www.w3.org/2000/svg">
<circle cx="250" cy="250" r="250" fill="#1D88D5"/>
<path d="M258.025 382C204.359 382 164.859 366.5 139.525 335.5C134.192 328.5 131.525 322.167 131.525 316.5C131.525 308.5 135.692 301.5 144.025 295.5C149.692 291.833 155.192 290 160.525 290C167.859 290 174.692 293.167 181.025 299.5C192.359 310.833 203.359 319 214.025 324C225.025 328.667 238.525 331 254.525 331C268.192 331 279.692 329.167 289.025 325.5C298.359 321.833 303.025 317.333 303.025 312C303.025 305.333 299.192 299.667 291.525 295C283.859 290.333 268.359 284.333 245.025 277C208.359 265.667 182.359 253.833 167.025 241.5C151.692 228.833 144.025 213.167 144.025 194.5C144.025 173.5 153.025 157 171.025 145C189.025 133 213.859 127 245.525 127C269.859 127 291.859 130.667 311.525 138C331.192 145.333 345.525 155.167 354.525 167.5C358.859 173.167 361.025 178.833 361.025 184.5C361.025 192.5 357.025 199 349.025 204C343.359 207.667 337.525 209.5 331.525 209.5C321.859 209.5 313.025 205.5 305.025 197.5C298.359 191.167 289.692 186.333 279.025 183C268.692 179.667 257.359 178 245.025 178C221.692 178 210.025 183.5 210.025 194.5C210.025 198.833 211.859 202.667 215.525 206C219.192 209.333 225.692 212.833 235.025 216.5C244.692 220.167 259.692 225.167 280.025 231.5C312.692 241.5 335.525 252.5 348.525 264.5C361.859 276.5 368.525 292.333 368.525 312C368.525 333 358.859 350 339.525 363C320.192 375.667 293.025 382 258.025 382Z" fill="white"/>
<script xmlns=""/></svg>